<svg width="58" height="24" viewBox="0 0 58 24" xmlns="http://www.w3.org/2000/svg">
<path d="M4.864 16.312C4.864 15.608 4.96 14.8613 5.152 14.072C5.344 13.2613 5.632 12.5147 6.016 11.832C6.4 11.1493 6.89067 10.584 7.488 10.136C8.10667 9.66667 8.832 9.432 9.664 9.432C10.88 9.432 11.7333 9.76267 12.224 10.424C12.736 11.0853 12.992 11.9707 12.992 13.08C12.992 13.784 12.896 14.5413 12.704 15.352C12.512 16.1627 12.2133 16.92 11.808 17.624C11.424 18.3067 10.9227 18.8827 10.304 19.352C9.70667 19.8 8.98133 20.024 8.128 20.024C7.59467 20.024 7.12533 19.928 6.72 19.736C6.31467 19.5227 5.97333 19.2453 5.696 18.904C5.41867 18.5627 5.20533 18.168 5.056 17.72C4.928 17.272 4.864 16.8027 4.864 16.312ZM0.32 16.312C0.32 18.68 1.00267 20.4613 2.368 21.656C3.75467 22.8293 5.6 23.416 7.904 23.416C9.41867 23.416 10.7627 23.1493 11.936 22.616C13.1307 22.0827 14.144 21.3467 14.976 20.408C15.808 19.4693 16.4373 18.3707 16.864 17.112C17.312 15.832 17.536 14.4667 17.536 13.016C17.536 11.8213 17.344 10.7867 16.96 9.912C16.5973 9.03733 16.0747 8.312 15.392 7.736C14.7093 7.16 13.888 6.73333 12.928 6.456C11.9893 6.15733 10.9547 6.008 9.824 6.008C8.352 6.008 7.02933 6.28533 5.856 6.84C4.68267 7.37333 3.68 8.10933 2.848 9.048C2.03733 9.98667 1.408 11.0853 0.96 12.344C0.533333 13.5813 0.32 14.904 0.32 16.312ZM31.8328 11.288H36.0568C36.0781 10.2213 35.9074 9.34667 35.5448 8.664C35.1821 7.98133 34.6808 7.448 34.0408 7.064C33.4221 6.65867 32.6968 6.38133 31.8648 6.232C31.0328 6.08267 30.1688 6.008 29.2728 6.008C28.4834 6.008 27.6514 6.104 26.7768 6.296C25.9234 6.46667 25.1341 6.76533 24.4088 7.192C23.6834 7.59733 23.0861 8.13067 22.6168 8.792C22.1688 9.45333 21.9448 10.2747 21.9448 11.256C21.9448 11.9173 22.0194 12.472 22.1688 12.92C22.3394 13.368 22.5741 13.752 22.8728 14.072C23.1928 14.392 23.5661 14.6587 23.9928 14.872C24.4408 15.0853 24.9528 15.288 25.5288 15.48L29.0168 16.6C29.5074 16.7707 29.9021 16.9733 30.2008 17.208C30.4994 17.4427 30.6488 17.848 30.6488 18.424C30.6488 18.808 30.5634 19.128 30.3928 19.384C30.2221 19.6187 29.9981 19.8213 29.7208 19.992C29.4434 20.1413 29.1341 20.248 28.7928 20.312C28.4514 20.376 28.1101 20.408 27.7688 20.408C27.3848 20.408 26.9901 20.3653 26.5848 20.28C26.2008 20.1733 25.8488 20.0347 25.5288 19.864C25.2301 19.672 24.9848 19.4373 24.7928 19.16C24.6008 18.8827 24.5048 18.552 24.5048 18.168V17.624H20.3128V18.296C20.3128 19.2773 20.5261 20.0987 20.9528 20.76C21.3794 21.4 21.9234 21.9227 22.5848 22.328C23.2674 22.712 24.0248 22.9893 24.8568 23.16C25.6888 23.3307 26.5101 23.416 27.3208 23.416C28.2808 23.416 29.2301 23.32 30.1688 23.128C31.1074 22.936 31.9501 22.616 32.6968 22.168C33.4434 21.72 34.0408 21.144 34.4888 20.44C34.9581 19.7147 35.1928 18.84 35.1928 17.816C35.1928 17.1333 35.0754 16.536 34.8408 16.024C34.6274 15.512 34.3181 15.0747 33.9128 14.712C33.5288 14.328 33.0701 14.008 32.5368 13.752C32.0248 13.496 31.4594 13.272 30.8408 13.08L28.5688 12.344C27.8008 12.1093 27.2568 11.864 26.9368 11.608C26.6381 11.352 26.4888 11.0427 26.4888 10.68C26.4888 10.0827 26.7448 9.66667 27.2568 9.432C27.7901 9.176 28.4621 9.048 29.2728 9.048C30.1688 9.048 30.8088 9.25067 31.1928 9.656C31.5981 10.04 31.8114 10.584 31.8328 11.288ZM43.1785 0.151999L38.4105 23H42.9225L44.0425 17.624L46.4105 15.608L49.1305 23H54.1225L49.8665 12.728L57.2905 6.456H51.6905L45.1625 12.632L45.0985 12.568L47.7225 0.151999H43.1785Z"/>
</svg>
