<svg width="95" height="18" viewBox="0 0 95 18" fill="none" xmlns="http://www.w3.org/2000/svg">
<path d="M4.26 17.16C3.03333 17.16 2.16 16.8 1.64 16.08C1.13333 15.3467 0.88 14.2867 0.88 12.9V9.54C0.88 8.15333 1.13333 7.1 1.64 6.38C2.16 5.64667 3.03333 5.28 4.26 5.28C5.47333 5.28 6.33333 5.64667 6.84 6.38C7.36 7.1 7.62 8.15333 7.62 9.54V12.9C7.62 14.2867 7.36 15.3467 6.84 16.08C6.33333 16.8 5.47333 17.16 4.26 17.16ZM4.26 15.58C4.64667 15.58 4.92667 15.4667 5.1 15.24C5.27333 15.0133 5.38 14.7333 5.42 14.4C5.46 14.0667 5.48 13.6133 5.48 13.04V9.42C5.48 8.84667 5.46 8.39333 5.42 8.06C5.38 7.71333 5.27333 7.42667 5.1 7.2C4.92667 6.97333 4.64667 6.86 4.26 6.86C3.87333 6.86 3.58667 6.97333 3.4 7.2C3.22667 7.42667 3.12 7.71333 3.08 8.06C3.04 8.39333 3.02 8.84667 3.02 9.42V13.04C3.02 13.6133 3.04 14.0667 3.08 14.4C3.12 14.7333 3.22667 15.0133 3.4 15.24C3.58667 15.4667 3.87333 15.58 4.26 15.58ZM15.2561 17.16C14.3228 17.16 13.5628 16.8667 12.9761 16.28C12.4028 15.6933 12.0761 14.9067 11.9961 13.92L13.7761 13.38C13.8828 14.1267 14.0628 14.68 14.3161 15.04C14.5828 15.4 14.9561 15.58 15.4361 15.58C15.8094 15.58 16.0961 15.4733 16.2961 15.26C16.5094 15.0333 16.6161 14.7333 16.6161 14.36C16.6161 14.0267 16.5428 13.7267 16.3961 13.46C16.2494 13.1933 16.0094 12.92 15.6761 12.64L13.6961 10.94C13.2428 10.5533 12.8894 10.1467 12.6361 9.72C12.3961 9.28 12.2761 8.74667 12.2761 8.12C12.2761 7.22667 12.5428 6.53333 13.0761 6.04C13.6094 5.53333 14.3361 5.28 15.2561 5.28C16.1361 5.28 16.8228 5.56667 17.3161 6.14C17.8228 6.7 18.1161 7.42667 18.1961 8.32L16.7561 8.86C16.6628 8.20667 16.5094 7.71333 16.2961 7.38C16.0828 7.03333 15.7628 6.86 15.3361 6.86C14.9894 6.86 14.7094 6.97333 14.4961 7.2C14.2961 7.42667 14.1961 7.70667 14.1961 8.04C14.1961 8.46667 14.3894 8.85333 14.7761 9.2L16.8161 11.08C17.3361 11.56 17.7361 12.0333 18.0161 12.5C18.3094 12.9667 18.4561 13.5333 18.4561 14.2C18.4561 15.16 18.1694 15.8933 17.5961 16.4C17.0228 16.9067 16.2428 17.16 15.2561 17.16ZM23.0966 0.779999H25.2366V10.44L28.3566 5.44H30.5966L27.8766 9.96L30.5166 17H28.3766L26.2166 11.08L25.2366 12.56V16.98H23.0966V0.779999ZM34.5308 14.62H36.6708V17H34.5308V14.62ZM40.8803 5.44H42.6403L43.8403 13.96L45.3803 5.44H47.0203L48.5603 13.92L49.7603 5.44H51.5203L49.6003 17H47.8003L46.2203 8.84L44.6603 17H42.7403L40.8803 5.44ZM59.3381 17.16C58.1115 17.16 57.2381 16.8 56.7181 16.08C56.2115 15.3467 55.9581 14.2867 55.9581 12.9V9.54C55.9581 8.15333 56.2115 7.1 56.7181 6.38C57.2381 5.64667 58.1115 5.28 59.3381 5.28C60.5515 5.28 61.4115 5.64667 61.9181 6.38C62.4381 7.1 62.6981 8.15333 62.6981 9.54V12.9C62.6981 14.2867 62.4381 15.3467 61.9181 16.08C61.4115 16.8 60.5515 17.16 59.3381 17.16ZM59.3381 15.58C59.7248 15.58 60.0048 15.4667 60.1781 15.24C60.3515 15.0133 60.4581 14.7333 60.4981 14.4C60.5381 14.0667 60.5581 13.6133 60.5581 13.04V9.42C60.5581 8.84667 60.5381 8.39333 60.4981 8.06C60.4581 7.71333 60.3515 7.42667 60.1781 7.2C60.0048 6.97333 59.7248 6.86 59.3381 6.86C58.9515 6.86 58.6648 6.97333 58.4781 7.2C58.3048 7.42667 58.1981 7.71333 58.1581 8.06C58.1181 8.39333 58.0981 8.84667 58.0981 9.42V13.04C58.0981 13.6133 58.1181 14.0667 58.1581 14.4C58.1981 14.7333 58.3048 15.0133 58.4781 15.24C58.6648 15.4667 58.9515 15.58 59.3381 15.58ZM67.7142 5.44H69.8542V7.08C70.2542 6.42667 70.6609 5.96667 71.0742 5.7C71.5009 5.43333 71.9476 5.3 72.4142 5.3C72.5342 5.3 72.6476 5.30667 72.7542 5.32V7.68C72.3276 7.52 71.9342 7.44 71.5742 7.44C71.2276 7.44 70.9142 7.52667 70.6342 7.7C70.3676 7.86 70.1076 8.14667 69.8542 8.56V17H67.7142V5.44ZM77.12 0.779999H79.26V10.44L82.38 5.44H84.62L81.9 9.96L84.54 17H82.4L80.24 11.08L79.26 12.56V16.98H77.12V0.779999ZM91.3342 17.16C90.4009 17.16 89.6409 16.8667 89.0542 16.28C88.4809 15.6933 88.1542 14.9067 88.0742 13.92L89.8542 13.38C89.9609 14.1267 90.1409 14.68 90.3942 15.04C90.6609 15.4 91.0342 15.58 91.5142 15.58C91.8876 15.58 92.1742 15.4733 92.3742 15.26C92.5876 15.0333 92.6942 14.7333 92.6942 14.36C92.6942 14.0267 92.6209 13.7267 92.4742 13.46C92.3276 13.1933 92.0876 12.92 91.7542 12.64L89.7742 10.94C89.3209 10.5533 88.9676 10.1467 88.7142 9.72C88.4742 9.28 88.3542 8.74667 88.3542 8.12C88.3542 7.22667 88.6209 6.53333 89.1542 6.04C89.6876 5.53333 90.4142 5.28 91.3342 5.28C92.2142 5.28 92.9009 5.56667 93.3942 6.14C93.9009 6.7 94.1942 7.42667 94.2742 8.32L92.8342 8.86C92.7409 8.20667 92.5876 7.71333 92.3742 7.38C92.1609 7.03333 91.8409 6.86 91.4142 6.86C91.0676 6.86 90.7876 6.97333 90.5742 7.2C90.3742 7.42667 90.2742 7.70667 90.2742 8.04C90.2742 8.46667 90.4676 8.85333 90.8542 9.2L92.8942 11.08C93.4142 11.56 93.8142 12.0333 94.0942 12.5C94.3876 12.9667 94.5342 13.5333 94.5342 14.2C94.5342 15.16 94.2476 15.8933 93.6742 16.4C93.1009 16.9067 92.3209 17.16 91.3342 17.16Z" fill="#315E68"/>
</svg>
