<svg width="166" height="24" viewBox="0 0 166 24" xmlns="http://www.w3.org/2000/svg">
<path d="M4.864 16.312C4.864 15.608 4.96 14.8613 5.152 14.072C5.344 13.2613 5.632 12.5147 6.016 11.832C6.4 11.1493 6.89067 10.584 7.488 10.136C8.10667 9.66667 8.832 9.432 9.664 9.432C10.88 9.432 11.7333 9.76267 12.224 10.424C12.736 11.0853 12.992 11.9707 12.992 13.08C12.992 13.784 12.896 14.5413 12.704 15.352C12.512 16.1627 12.2133 16.92 11.808 17.624C11.424 18.3067 10.9227 18.8827 10.304 19.352C9.70667 19.8 8.98133 20.024 8.128 20.024C7.59467 20.024 7.12533 19.928 6.72 19.736C6.31467 19.5227 5.97333 19.2453 5.696 18.904C5.41867 18.5627 5.20533 18.168 5.056 17.72C4.928 17.272 4.864 16.8027 4.864 16.312ZM0.32 16.312C0.32 18.68 1.00267 20.4613 2.368 21.656C3.75467 22.8293 5.6 23.416 7.904 23.416C9.41867 23.416 10.7627 23.1493 11.936 22.616C13.1307 22.0827 14.144 21.3467 14.976 20.408C15.808 19.4693 16.4373 18.3707 16.864 17.112C17.312 15.832 17.536 14.4667 17.536 13.016C17.536 11.8213 17.344 10.7867 16.96 9.912C16.5973 9.03733 16.0747 8.312 15.392 7.736C14.7093 7.16 13.888 6.73333 12.928 6.456C11.9893 6.15733 10.9547 6.008 9.824 6.008C8.352 6.008 7.02933 6.28533 5.856 6.84C4.68267 7.37333 3.68 8.10933 2.848 9.048C2.03733 9.98667 1.408 11.0853 0.96 12.344C0.533333 13.5813 0.32 14.904 0.32 16.312ZM31.8328 11.288H36.0568C36.0781 10.2213 35.9074 9.34667 35.5448 8.664C35.1821 7.98133 34.6808 7.448 34.0408 7.064C33.4221 6.65867 32.6968 6.38133 31.8648 6.232C31.0328 6.08267 30.1688 6.008 29.2728 6.008C28.4834 6.008 27.6514 6.104 26.7768 6.296C25.9234 6.46667 25.1341 6.76533 24.4088 7.192C23.6834 7.59733 23.0861 8.13067 22.6168 8.792C22.1688 9.45333 21.9448 10.2747 21.9448 11.256C21.9448 11.9173 22.0194 12.472 22.1688 12.92C22.3394 13.368 22.5741 13.752 22.8728 14.072C23.1928 14.392 23.5661 14.6587 23.9928 14.872C24.4408 15.0853 24.9528 15.288 25.5288 15.48L29.0168 16.6C29.5074 16.7707 29.9021 16.9733 30.2008 17.208C30.4994 17.4427 30.6488 17.848 30.6488 18.424C30.6488 18.808 30.5634 19.128 30.3928 19.384C30.2221 19.6187 29.9981 19.8213 29.7208 19.992C29.4434 20.1413 29.1341 20.248 28.7928 20.312C28.4514 20.376 28.1101 20.408 27.7688 20.408C27.3848 20.408 26.9901 20.3653 26.5848 20.28C26.2008 20.1733 25.8488 20.0347 25.5288 19.864C25.2301 19.672 24.9848 19.4373 24.7928 19.16C24.6008 18.8827 24.5048 18.552 24.5048 18.168V17.624H20.3128V18.296C20.3128 19.2773 20.5261 20.0987 20.9528 20.76C21.3794 21.4 21.9234 21.9227 22.5848 22.328C23.2674 22.712 24.0248 22.9893 24.8568 23.16C25.6888 23.3307 26.5101 23.416 27.3208 23.416C28.2808 23.416 29.2301 23.32 30.1688 23.128C31.1074 22.936 31.9501 22.616 32.6968 22.168C33.4434 21.72 34.0408 21.144 34.4888 20.44C34.9581 19.7147 35.1928 18.84 35.1928 17.816C35.1928 17.1333 35.0754 16.536 34.8408 16.024C34.6274 15.512 34.3181 15.0747 33.9128 14.712C33.5288 14.328 33.0701 14.008 32.5368 13.752C32.0248 13.496 31.4594 13.272 30.8408 13.08L28.5688 12.344C27.8008 12.1093 27.2568 11.864 26.9368 11.608C26.6381 11.352 26.4888 11.0427 26.4888 10.68C26.4888 10.0827 26.7448 9.66667 27.2568 9.432C27.7901 9.176 28.4621 9.048 29.2728 9.048C30.1688 9.048 30.8088 9.25067 31.1928 9.656C31.5981 10.04 31.8114 10.584 31.8328 11.288ZM43.1785 0.151999L38.4105 23H42.9225L44.0425 17.624L46.4105 15.608L49.1305 23H54.1225L49.8665 12.728L57.2905 6.456H51.6905L45.1625 12.632L45.0985 12.568L47.7225 0.151999H43.1785ZM58.7837 18.072L57.7597 23H62.7837L63.8397 18.072H58.7837ZM86.698 23L95.338 6.456H90.538L85.226 18.008H85.162L84.65 6.456H80.042L74.954 18.104H74.89L74.25 6.456H69.61L71.434 23H76.202L81.322 11.384H81.386L81.962 23H86.698ZM101.208 16.312C101.208 15.608 101.304 14.8613 101.496 14.072C101.688 13.2613 101.976 12.5147 102.36 11.832C102.744 11.1493 103.234 10.584 103.832 10.136C104.45 9.66667 105.176 9.432 106.008 9.432C107.224 9.432 108.077 9.76267 108.568 10.424C109.08 11.0853 109.336 11.9707 109.336 13.08C109.336 13.784 109.24 14.5413 109.048 15.352C108.856 16.1627 108.557 16.92 108.152 17.624C107.768 18.3067 107.266 18.8827 106.648 19.352C106.05 19.8 105.325 20.024 104.472 20.024C103.938 20.024 103.469 19.928 103.064 19.736C102.658 19.5227 102.317 19.2453 102.04 18.904C101.762 18.5627 101.549 18.168 101.4 17.72C101.272 17.272 101.208 16.8027 101.208 16.312ZM96.6638 16.312C96.6638 18.68 97.3464 20.4613 98.7118 21.656C100.098 22.8293 101.944 23.416 104.248 23.416C105.762 23.416 107.106 23.1493 108.28 22.616C109.474 22.0827 110.488 21.3467 111.32 20.408C112.152 19.4693 112.781 18.3707 113.208 17.112C113.656 15.832 113.88 14.4667 113.88 13.016C113.88 11.8213 113.688 10.7867 113.304 9.912C112.941 9.03733 112.418 8.312 111.736 7.736C111.053 7.16 110.232 6.73333 109.272 6.456C108.333 6.15733 107.298 6.008 106.168 6.008C104.696 6.008 103.373 6.28533 102.2 6.84C101.026 7.37333 100.024 8.10933 99.1918 9.048C98.3811 9.98667 97.7518 11.0853 97.3038 12.344C96.8771 13.5813 96.6638 14.904 96.6638 16.312ZM119.984 6.456L116.56 23H121.072L122.608 15.672C122.758 14.968 122.95 14.296 123.184 13.656C123.44 12.9947 123.771 12.408 124.176 11.896C124.603 11.384 125.115 10.9787 125.712 10.68C126.331 10.3813 127.078 10.232 127.952 10.232C128.272 10.232 128.592 10.264 128.912 10.328C129.232 10.392 129.552 10.456 129.872 10.52L130.8 6.104C130.331 6.04 129.862 6.008 129.392 6.008C128.176 6.008 127.046 6.30667 126 6.904C124.976 7.48 124.208 8.344 123.696 9.496L123.632 9.432L124.304 6.456H119.984ZM135.366 0.151999L130.598 23H135.11L136.23 17.624L138.598 15.608L141.318 23H146.31L142.054 12.728L149.478 6.456H143.878L137.35 12.632L137.286 12.568L139.91 0.151999H135.366ZM161.595 11.288H165.819C165.841 10.2213 165.67 9.34667 165.307 8.664C164.945 7.98133 164.443 7.448 163.803 7.064C163.185 6.65867 162.459 6.38133 161.627 6.232C160.795 6.08267 159.931 6.008 159.035 6.008C158.246 6.008 157.414 6.104 156.539 6.296C155.686 6.46667 154.897 6.76533 154.171 7.192C153.446 7.59733 152.849 8.13067 152.379 8.792C151.931 9.45333 151.707 10.2747 151.707 11.256C151.707 11.9173 151.782 12.472 151.931 12.92C152.102 13.368 152.337 13.752 152.635 14.072C152.955 14.392 153.329 14.6587 153.755 14.872C154.203 15.0853 154.715 15.288 155.291 15.48L158.779 16.6C159.27 16.7707 159.665 16.9733 159.963 17.208C160.262 17.4427 160.411 17.848 160.411 18.424C160.411 18.808 160.326 19.128 160.155 19.384C159.985 19.6187 159.761 19.8213 159.483 19.992C159.206 20.1413 158.897 20.248 158.555 20.312C158.214 20.376 157.873 20.408 157.531 20.408C157.147 20.408 156.753 20.3653 156.347 20.28C155.963 20.1733 155.611 20.0347 155.291 19.864C154.993 19.672 154.747 19.4373 154.555 19.16C154.363 18.8827 154.267 18.552 154.267 18.168V17.624H150.075V18.296C150.075 19.2773 150.289 20.0987 150.715 20.76C151.142 21.4 151.686 21.9227 152.347 22.328C153.03 22.712 153.787 22.9893 154.619 23.16C155.451 23.3307 156.273 23.416 157.083 23.416C158.043 23.416 158.993 23.32 159.931 23.128C160.87 22.936 161.713 22.616 162.459 22.168C163.206 21.72 163.803 21.144 164.251 20.44C164.721 19.7147 164.955 18.84 164.955 17.816C164.955 17.1333 164.838 16.536 164.603 16.024C164.39 15.512 164.081 15.0747 163.675 14.712C163.291 14.328 162.833 14.008 162.299 13.752C161.787 13.496 161.222 13.272 160.603 13.08L158.331 12.344C157.563 12.1093 157.019 11.864 156.699 11.608C156.401 11.352 156.251 11.0427 156.251 10.68C156.251 10.0827 156.507 9.66667 157.019 9.432C157.553 9.176 158.225 9.048 159.035 9.048C159.931 9.048 160.571 9.25067 160.955 9.656C161.361 10.04 161.574 10.584 161.595 11.288Z"/>
</svg>
